<?xml version="1.0" encoding="UTF-8"?><!DOCTYPE svg PUBLIC "-//W3C//DTD SVG 1.1//EN" "http://www.w3.org/Graphics/SVG/1.1/DTD/svg11.dtd"><svg xmlns="http://www.w3.org/2000/svg" xmlns:xlink="http://www.w3.org/1999/xlink"><symbol viewBox="0 0 24 24" id="account-box" xmlns="http://www.w3.org/2000/svg"><path d="M6 17c0-2 4-3.1 6-3.1s6 1.1 6 3.1v1H6m9-9a3 3 0 01-3 3 3 3 0 01-3-3 3 3 0 013-3 3 3 0 013 3M3 5v14a2 2 0 002 2h14a2 2 0 002-2V5a2 2 0 00-2-2H5a2 2 0 00-2 2z"/></symbol><symbol viewBox="0 0 24 24" id="check-circle" xmlns="http://www.w3.org/2000/svg"><path d="M12 2C6.5 2 2 6.5 2 12s4.5 10 10 10 10-4.5 10-10S17.5 2 12 2m-2 15l-5-5 1.41-1.41L10 14.17l7.59-7.59L19 8l-9 9z"/></symbol><symbol viewBox="0 0 24 24" id="chevron-down" xmlns="http://www.w3.org/2000/svg"><path d="M7.41 8.58L12 13.17l4.59-4.59L18 10l-6 6-6-6 1.41-1.42z"/></symbol><symbol viewBox="0 0 24 24" id="chevron-left" xmlns="http://www.w3.org/2000/svg"><path d="M15.41 16.58L10.83 12l4.58-4.59L14 6l-6 6 6 6 1.41-1.42z"/></symbol><symbol viewBox="0 0 24 24" id="chevron-right" xmlns="http://www.w3.org/2000/svg"><path d="M8.59 16.58L13.17 12 8.59 7.41 10 6l6 6-6 6-1.41-1.42z"/></symbol><symbol viewBox="0 0 24 24" id="chevron-up" xmlns="http://www.w3.org/2000/svg"><path d="M7.41 15.41L12 10.83l4.59 4.58L18 14l-6-6-6 6 1.41 1.41z"/></symbol><symbol viewBox="0 0 24 24" id="clipboard-arrow-up-outline" xmlns="http://www.w3.org/2000/svg"><path d="M12 8l5 5h-3v4h-4v-4H7l5-5m7-5a2 2 0 012 2v14a2 2 0 01-2 2H5a2 2 0 01-2-2V5a2 2 0 012-2h4.18C9.6 1.84 10.7 1 12 1c1.3 0 2.4.84 2.82 2H19m-7 0a1 1 0 00-1 1 1 1 0 001 1 1 1 0 001-1 1 1 0 00-1-1M7 7V5H5v14h14V5h-2v2H7z"/></symbol><symbol viewBox="0 0 24 24" id="close" xmlns="http://www.w3.org/2000/svg"><path d="M19 6.41L17.59 5 12 10.59 6.41 5 5 6.41 10.59 12 5 17.59 6.41 19 12 13.41 17.59 19 19 17.59 13.41 12 19 6.41z"/></symbol><symbol viewBox="0 0 24 24" id="close-circle" xmlns="http://www.w3.org/2000/svg"><path d="M12 2c5.53 0 10 4.47 10 10s-4.47 10-10 10S2 17.53 2 12 6.47 2 12 2m3.59 5L12 10.59 8.41 7 7 8.41 10.59 12 7 15.59 8.41 17 12 13.41 15.59 17 17 15.59 13.41 12 17 8.41 15.59 7z"/></symbol><symbol viewBox="0 0 24 24" id="delete" xmlns="http://www.w3.org/2000/svg"><path d="M19 4h-3.5l-1-1h-5l-1 1H5v2h14M6 19a2 2 0 002 2h8a2 2 0 002-2V7H6v12z"/></symbol><symbol viewBox="0 0 24 24" id="download" xmlns="http://www.w3.org/2000/svg"><path d="M5 20h14v-2H5m14-9h-4V3H9v6H5l7 7 7-7z"/></symbol><symbol viewBox="0 0 24 24" id="file-download-outline" xmlns="http://www.w3.org/2000/svg"><path d="M14 2l6 6v12a2 2 0 01-2 2H6a2 2 0 01-2-2V4a2 2 0 012-2h8m4 18V9h-5V4H6v16h12m-6-1l-4-4h2.5v-3h3v3H16l-4 4z"/></symbol><symbol viewBox="0 0 24 24" id="filter" xmlns="http://www.w3.org/2000/svg"><path d="M14 12v7.88c.04.3-.06.62-.29.83a.996.996 0 01-1.41 0l-2.01-2.01a.989.989 0 01-.29-.83V12h-.03L4.21 4.62a1 1 0 01.17-1.4c.19-.14.4-.22.62-.22h14c.22 0 .43.08.62.22a1 1 0 01.17 1.4L14.03 12H14z"/></symbol><symbol viewBox="0 0 24 24" id="filter-remove" xmlns="http://www.w3.org/2000/svg"><path d="M14.76 20.83L17.6 18l-2.84-2.83 1.41-1.41L19 16.57l2.83-2.81 1.41 1.41L20.43 18l2.81 2.83-1.41 1.41L19 19.4l-2.83 2.84-1.41-1.41M12 12v7.88c.04.3-.06.62-.29.83a.996.996 0 01-1.41 0L8.29 18.7a.989.989 0 01-.29-.83V12h-.03L2.21 4.62a1 1 0 01.17-1.4c.19-.14.4-.22.62-.22h14c.22 0 .43.08.62.22a1 1 0 01.17 1.4L12.03 12H12z"/></symbol><symbol viewBox="0 0 24 24" id="help-box" xmlns="http://www.w3.org/2000/svg"><path d="M11 18h2v-2h-2v2m1-12a4 4 0 00-4 4h2a2 2 0 012-2 2 2 0 012 2c0 2-3 1.75-3 5h2c0-2.25 3-2.5 3-5a4 4 0 00-4-4M5 3h14a2 2 0 012 2v14a2 2 0 01-2 2H5a2 2 0 01-2-2V5a2 2 0 012-2z"/></symbol><symbol viewBox="0 0 24 24" id="logout-variant" xmlns="http://www.w3.org/2000/svg"><path d="M14.08 15.59L16.67 13H7v-2h9.67l-2.59-2.59L15.5 7l5 5-5 5-1.42-1.41M19 3a2 2 0 012 2v4.67l-2-2V5H5v14h14v-2.67l2-2V19a2 2 0 01-2 2H5a2 2 0 01-2-2V5c0-1.11.89-2 2-2h14z"/></symbol><symbol viewBox="0 0 24 24" id="minus" xmlns="http://www.w3.org/2000/svg"><path d="M19 13H5v-2h14v2z"/></symbol><symbol viewBox="0 0 24 24" id="minus-box" xmlns="http://www.w3.org/2000/svg"><path d="M17 13H7v-2h10m2-8H5c-1.11 0-2 .89-2 2v14a2 2 0 002 2h14a2 2 0 002-2V5a2 2 0 00-2-2z"/></symbol><symbol viewBox="0 0 24 24" id="monitor-screenshot" xmlns="http://www.w3.org/2000/svg"><path d="M9 6H5v4h2V8h2m10 2h-2v2h-2v2h4m2 2H3V4h18m0-2H3c-1.11 0-2 .89-2 2v12a2 2 0 002 2h7v2H8v2h8v-2h-2v-2h7a2 2 0 002-2V4a2 2 0 00-2-2"/></symbol><symbol viewBox="0 0 24 24" id="pencil" xmlns="http://www.w3.org/2000/svg"><path d="M20.71 7.04c.39-.39.39-1.04 0-1.41l-2.34-2.34c-.37-.39-1.02-.39-1.41 0l-1.84 1.83 3.75 3.75M3 17.25V21h3.75L17.81 9.93l-3.75-3.75L3 17.25z"/></symbol><symbol viewBox="0 0 24 24" id="plus" xmlns="http://www.w3.org/2000/svg"><path d="M19 13h-6v6h-2v-6H5v-2h6V5h2v6h6v2z"/></symbol><symbol viewBox="0 0 24 24" id="plus-box" xmlns="http://www.w3.org/2000/svg"><path d="M17 13h-4v4h-2v-4H7v-2h4V7h2v4h4m2-8H5c-1.11 0-2 .89-2 2v14a2 2 0 002 2h14a2 2 0 002-2V5a2 2 0 00-2-2z"/></symbol><symbol viewBox="0 0 24 24" id="settings-outline" xmlns="http://www.w3.org/2000/svg"><path d="M12 8a4 4 0 014 4 4 4 0 01-4 4 4 4 0 01-4-4 4 4 0 014-4m0 2a2 2 0 00-2 2 2 2 0 002 2 2 2 0 002-2 2 2 0 00-2-2m-2 12c-.25 0-.46-.18-.5-.42l-.37-2.65c-.63-.25-1.17-.59-1.69-.99l-2.49 1.01c-.22.08-.49 0-.61-.22l-2-3.46a.493.493 0 01.12-.64l2.11-1.66L4.5 12l.07-1-2.11-1.63a.493.493 0 01-.12-.64l2-3.46c.12-.22.39-.31.61-.22l2.49 1c.52-.39 1.06-.73 1.69-.98l.37-2.65c.04-.24.25-.42.5-.42h4c.25 0 .46.18.5.42l.37 2.65c.63.25 1.17.59 1.69.98l2.49-1c.22-.09.49 0 .61.22l2 3.46c.13.22.07.49-.12.64L19.43 11l.07 1-.07 1 2.11 1.63c.19.15.25.42.12.64l-2 3.46c-.12.22-.39.31-.61.22l-2.49-1c-.52.39-1.06.73-1.69.98l-.37 2.65c-.04.24-.25.42-.5.42h-4m1.25-18l-.37 2.61c-1.2.25-2.26.89-3.03 1.78L5.44 7.35l-.75 1.3L6.8 10.2a5.55 5.55 0 000 3.6l-2.12 1.56.75 1.3 2.43-1.04c.77.88 1.82 1.52 3.01 1.76l.37 2.62h1.52l.37-2.61c1.19-.25 2.24-.89 3.01-1.77l2.43 1.04.75-1.3-2.12-1.55c.4-1.17.4-2.44 0-3.61l2.11-1.55-.75-1.3-2.41 1.04a5.42 5.42 0 00-3.03-1.77L12.75 4h-1.5z"/></symbol><symbol viewBox="0 0 24 24" id="shield-key" xmlns="http://www.w3.org/2000/svg"><path d="M12 8a1 1 0 011 1 1 1 0 01-1 1 1 1 0 01-1-1 1 1 0 011-1m9 3c0 5.55-3.84 10.74-9 12-5.16-1.26-9-6.45-9-12V5l9-4 9 4v6m-9-5a3 3 0 00-3 3c0 1.31.83 2.42 2 2.83V18h2v-2h2v-2h-2v-2.17c1.17-.41 2-1.52 2-2.83a3 3 0 00-3-3z"/></symbol><symbol viewBox="0 0 24 24" id="table-arrow-right" xmlns="http://www.w3.org/2000/svg"><path d="M4 3h14a2 2 0 012 2v7.08a6.01 6.01 0 00-4.32.92H12v4h1.08c-.11.68-.11 1.35 0 2H4a2 2 0 01-2-2V5c0-1.1.9-2 2-2m0 4v4h6V7H4m8 0v4h6V7h-6m-8 6v4h6v-4H4m15.44 8v-2h-4v-2h4v-2l3 3-3 3"/></symbol><symbol viewBox="0 0 24 24" id="text-box-outline" xmlns="http://www.w3.org/2000/svg"><path d="M5 3c-1.11 0-2 .89-2 2v14c0 1.11.89 2 2 2h14c1.11 0 2-.89 2-2V5c0-1.11-.89-2-2-2H5m0 2h14v14H5V5m2 2v2h10V7H7m0 4v2h10v-2H7m0 4v2h7v-2H7z"/></symbol><symbol viewBox="0 0 24 24" id="text-box-search-outline" xmlns="http://www.w3.org/2000/svg"><path d="M15.5 12c2.5 0 4.5 2 4.5 4.5 0 .88-.25 1.71-.69 2.4l3.08 3.1L21 23.39l-3.12-3.07c-.69.43-1.51.68-2.38.68-2.5 0-4.5-2-4.5-4.5s2-4.5 4.5-4.5m0 2a2.5 2.5 0 00-2.5 2.5 2.5 2.5 0 002.5 2.5 2.5 2.5 0 002.5-2.5 2.5 2.5 0 00-2.5-2.5M5 3h14c1.11 0 2 .89 2 2v8.03c-.5-.8-1.19-1.49-2-2.03V5H5v14h4.5c.31.75.76 1.42 1.31 2H5c-1.11 0-2-.89-2-2V5c0-1.11.89-2 2-2m2 4h10v2H7V7m0 4h5.03c-.8.5-1.49 1.19-2.03 2H7v-2m0 4h2.17c-.11.5-.17 1-.17 1.5v.5H7v-2z"/></symbol><symbol viewBox="0 0 24 24" id="view-dashboard" xmlns="http://www.w3.org/2000/svg"><path d="M13 3v6h8V3m-8 18h8V11h-8M3 21h8v-6H3m0-2h8V3H3v10z"/></symbol><symbol viewBox="0 0 24 24" id="web" xmlns="http://www.w3.org/2000/svg"><path d="M16.36 14c.08-.66.14-1.32.14-2 0-.68-.06-1.34-.14-2h3.38c.16.64.26 1.31.26 2s-.1 1.36-.26 2m-5.15 5.56c.6-1.11 1.06-2.31 1.38-3.56h2.95a8.03 8.03 0 01-4.33 3.56M14.34 14H9.66c-.1-.66-.16-1.32-.16-2 0-.68.06-1.35.16-2h4.68c.09.65.16 1.32.16 2 0 .68-.07 1.34-.16 2M12 19.96c-.83-1.2-1.5-2.53-1.91-3.96h3.82c-.41 1.43-1.08 2.76-1.91 3.96M8 8H5.08A7.923 7.923 0 019.4 4.44C8.8 5.55 8.35 6.75 8 8m-2.92 8H8c.35 1.25.8 2.45 1.4 3.56A8.008 8.008 0 015.08 16m-.82-2C4.1 13.36 4 12.69 4 12s.1-1.36.26-2h3.38c-.08.66-.14 1.32-.14 2 0 .68.06 1.34.14 2M12 4.03c.83 1.2 1.5 2.54 1.91 3.97h-3.82c.41-1.43 1.08-2.77 1.91-3.97M18.92 8h-2.95a15.65 15.65 0 00-1.38-3.56c1.84.63 3.37 1.9 4.33 3.56M12 2C6.47 2 2 6.5 2 12a10 10 0 0010 10 10 10 0 0010-10A10 10 0 0012 2z"/></symbol></svg>